<svg width="113" height="20" viewBox="0 0 113 20" fill="none" xmlns="http://www.w3.org/2000/svg">
<g clip-path="url(#clip0_666_4499)">
<path d="M0.72821 4.22176V19.2477H4.89973V7.90784C5.16187 7.87225 5.4596 7.83665 5.79617 7.81076C6.13274 7.78163 6.44989 7.76869 6.74763 7.76869C7.7185 7.76869 8.38193 8.047 8.73468 8.60687C9.08743 9.16674 9.26543 10.115 9.26543 11.4548V19.2477H13.4369V10.9532C13.4369 9.94668 13.3334 9.03729 13.1295 8.21529C12.9224 7.39652 12.5793 6.68778 12.0939 6.09231C11.6085 5.49684 10.9483 5.03729 10.1198 4.71043C9.28808 4.38357 8.24601 4.22176 6.99682 4.22176H0.724976H0.72821Z" fill="#50B648"/>
<path d="M47.9062 4.22176C46.2363 4.22176 44.9192 4.61011 43.9645 5.38681C43.0065 6.16351 42.5276 7.22176 42.5276 8.56156C42.5276 9.24765 42.6214 9.83665 42.8156 10.3253C43.0065 10.814 43.2751 11.2347 43.6246 11.5875C43.9742 11.9402 44.3949 12.2444 44.89 12.4968C45.3852 12.7493 45.9386 12.9952 46.547 13.2282C47.3301 13.5357 47.9127 13.8108 48.2978 14.0567C48.6797 14.2994 48.8738 14.5842 48.8738 14.9111C48.8738 15.3286 48.725 15.6392 48.4305 15.7816H43.6085C42.9062 15.7816 42.3399 16.3512 42.3399 17.0502V19.2477H46.8933C48.7573 19.2477 50.1975 18.8852 51.2136 18.1667C52.2331 17.4451 52.7412 16.3803 52.7412 14.9726C52.7412 14.3771 52.6764 13.8528 52.5437 13.403C52.4143 12.9532 52.1878 12.5421 51.8641 12.17C51.5405 11.801 51.1036 11.4548 50.547 11.1376C49.9903 10.8205 49.2848 10.4968 48.4305 10.1667C48.013 10.0017 47.67 9.85283 47.3981 9.7169C47.1295 9.58098 46.9159 9.45477 46.7573 9.33503C46.602 9.21852 46.4952 9.09555 46.4434 8.96933C46.3916 8.84312 46.3657 8.69749 46.3657 8.53568C46.3657 7.83017 46.9742 7.69102 48.1942 7.69102H51.4693C52.1716 7.69102 52.7379 7.12144 52.7379 6.42241V4.225H48.1133" fill="#50B648"/>
<path d="M55.0486 4.22176V19.2477H59.0745V7.90784C59.3269 7.87225 59.589 7.83665 59.8577 7.81076C60.1263 7.78163 60.3884 7.76869 60.6408 7.76869C61.4499 7.76869 62.0227 8.047 62.356 8.60687C62.6894 9.16674 62.8577 10.115 62.8577 11.4548V19.2477H66.8836V11.2315C66.8836 10.691 66.8641 10.1829 66.8285 9.71043C66.7929 9.2347 66.712 8.78487 66.5858 8.35445C66.8382 8.18616 67.1586 8.047 67.5437 7.93697C67.9321 7.8237 68.2331 7.76869 68.4499 7.76869C69.2622 7.76869 69.8318 8.047 70.1651 8.60687C70.4984 9.16674 70.6667 10.115 70.6667 11.4548V19.2477H74.6926V10.9532C74.6926 9.94668 74.6117 9.03729 74.4499 8.21529C74.2881 7.39652 73.9904 6.68778 73.5567 6.09231C73.123 5.49684 72.5437 5.03729 71.8123 4.71043C71.0842 4.38357 70.1489 4.22176 69.0162 4.22176C68.3852 4.22176 67.6958 4.34474 66.9483 4.58422C66.2007 4.82694 65.5373 5.16027 64.9612 5.59069C64.547 5.21852 64.0195 4.89813 63.3787 4.62629C62.7379 4.35768 61.9062 4.22176 60.8771 4.22176H55.0389H55.0486Z" fill="#50B648"/>
<path d="M83.2395 10.0017C82.4337 10.0017 81.657 10.1085 80.9094 10.2638C80.1619 10.4192 79.4952 10.6684 78.9159 11.0146C78.3366 11.3609 77.8738 11.8237 77.5276 12.4062C77.1813 12.9888 77.0098 13.6975 77.0098 14.5324C77.0098 15.3674 77.1586 16.1409 77.4596 16.7428C77.7573 17.3415 78.1878 17.8302 78.7509 18.2023C79.3107 18.5745 79.9806 18.8431 80.7573 19.0082C81.3787 19.1376 82.0551 19.2185 82.7897 19.2444L89.725 19.2541V10.0923C89.725 9.20234 89.6214 8.39328 89.4175 7.66513C89.2104 6.93697 88.8609 6.31885 88.3657 5.81076C87.8706 5.30267 87.2104 4.91108 86.3884 4.63924C85.5632 4.36739 84.5373 4.23147 83.301 4.23147H78.1683V6.42888C78.1683 7.13114 78.7379 7.69749 79.4369 7.69749H82.8221C83.89 7.69749 84.6376 7.82047 85.068 8.23794C85.4984 8.65542 85.712 9.21205 85.712 9.90137V10.0082M85.712 15.7881H81.0777C79.9191 14.7687 80.6246 13.4774 81.6344 13.4774H85.712V15.7881Z" fill="#50B648"/>
<path d="M26.7929 6.07936C25.6764 4.83988 24.1586 4.22176 22.2363 4.22176C21.4143 4.22176 20.6117 4.38357 19.8318 4.71043C19.0518 5.03729 18.3593 5.51626 17.7606 6.14733C17.1586 6.78163 16.6764 7.57127 16.3075 8.51949C15.9386 9.46771 15.7541 10.5777 15.7541 11.8431C15.7541 12.8917 15.8965 13.869 16.1781 14.7719C16.4596 15.6748 16.8997 16.458 17.492 17.1182C18.0842 17.7784 18.8318 18.2994 19.7314 18.6781C20.5761 19.0341 21.5664 19.2218 22.6894 19.2444L27.314 19.2477V17.0502C27.314 16.348 26.7444 15.7816 26.0454 15.7816H23.4272V15.7913V15.7784C22.3302 15.7784 21.4531 15.5357 20.8026 15.047C20.1522 14.5583 19.7832 14.3027 19.6958 13.4709H28.4725V11.5486C28.4725 9.14409 27.9159 7.32208 26.7994 6.0826L26.7929 6.07936ZM19.8609 10.0017C19.8609 8.72661 21.0098 7.69102 22.4305 7.69102C23.8512 7.69102 25.0001 8.72661 25.0001 10.0017H19.8609Z" fill="#50B648"/>
<path d="M107.541 4.22176H112.838V6.42241C112.838 7.12144 112.275 7.68778 111.576 7.68778H107.537V13.1344C107.537 13.9693 107.683 14.6392 107.974 15.1344C108.265 15.6328 108.851 15.7752 109.735 15.7752H111.563C112.265 15.7752 112.832 16.3447 112.832 17.0438V19.2412H109.097C108.019 19.2412 107.126 19.0955 106.421 18.801C105.715 18.5065 105.149 18.0988 104.725 17.5745C104.301 17.0502 104.003 16.4127 103.838 15.6651C103.67 14.9176 103.586 14.0923 103.586 13.1829V0.749268H106.262C106.964 0.749268 107.531 1.31885 107.531 2.01788V4.21529L107.541 4.22176Z" fill="#50B648"/>
<path d="M97.8738 4.22176H94.8674C93.301 4.22176 92.0324 5.49037 92.0324 7.05671V19.2477H96.0615V7.69102H100.01C100.712 7.69102 101.278 7.21852 101.278 6.51626V4.225H97.8706L97.8738 4.22176Z" fill="#50B648"/>
<path d="M34.725 4.22176H40.0227V6.42241C40.0227 7.12144 39.4596 7.68778 38.7606 7.68778H34.7217V13.1344C34.7217 13.9693 34.8674 14.6392 35.1586 15.1344C35.4499 15.6328 36.0356 15.7752 36.9191 15.7752H38.7476C39.4499 15.7752 40.0162 16.3447 40.0162 17.0438V19.2412H36.2816C35.2039 19.2412 34.3107 19.0955 33.6052 18.801C32.8997 18.5065 32.3334 18.0988 31.9094 17.5745C31.4855 17.0502 31.1878 16.4127 31.0227 15.6651C30.8544 14.9176 30.7703 14.0923 30.7703 13.1829V0.749268H33.4467C34.1489 0.749268 34.7153 1.31885 34.7153 2.01788V4.21529L34.725 4.22176Z" fill="#50B648"/>
</g>
<defs>
<clipPath id="clip0_666_4499">
<rect width="112.113" height="18.5049" fill="white" transform="translate(0.724976 0.749268)"/>
</clipPath>
</defs>
</svg>
